<svg xmlns="http://www.w3.org/2000/svg" viewBox="0 0 800 340" font-family="'Hiragino Sans', 'Noto Sans JP', sans-serif">
  <!-- 従来の開発 -->
  <rect x="20" y="20" width="360" height="300" rx="16" fill="#f9fafb" stroke="#e5e7eb" stroke-width="2"/>
  <text x="200" y="56" text-anchor="middle" font-size="18" font-weight="700" fill="#991b1b">従来の開発</text>

  <rect x="50" y="76" width="300" height="44" rx="8" fill="#fef2f2"/>
  <text x="200" y="104" text-anchor="middle" font-size="15" fill="#374151">要件をまとめる（数週間）</text>

  <line x1="200" y1="120" x2="200" y2="136" stroke="#d1d5db" stroke-width="2" marker-end="url(#arrowGray)"/>

  <rect x="50" y="136" width="300" height="44" rx="8" fill="#fef2f2"/>
  <text x="200" y="164" text-anchor="middle" font-size="15" fill="#374151">エンジニアに依頼（数十万〜）</text>

  <line x1="200" y1="180" x2="200" y2="196" stroke="#d1d5db" stroke-width="2" marker-end="url(#arrowGray)"/>

  <rect x="50" y="196" width="300" height="44" rx="8" fill="#fef2f2"/>
  <text x="200" y="224" text-anchor="middle" font-size="15" fill="#374151">開発を待つ（数ヶ月）</text>

  <line x1="200" y1="240" x2="200" y2="256" stroke="#d1d5db" stroke-width="2" marker-end="url(#arrowGray)"/>

  <rect x="50" y="256" width="300" height="44" rx="8" fill="#fef2f2"/>
  <text x="200" y="284" text-anchor="middle" font-size="15" fill="#374151">やっと完成</text>

  <!-- 矢印マーカー -->
  <defs>
    <marker id="arrowGray" viewBox="0 0 10 10" refX="9" refY="5" markerWidth="6" markerHeight="6" orient="auto-start-auto">
      <path d="M 0 0 L 10 5 L 0 10 z" fill="#d1d5db"/>
    </marker>
    <marker id="arrowTeal" viewBox="0 0 10 10" refX="9" refY="5" markerWidth="6" markerHeight="6" orient="auto-start-auto">
      <path d="M 0 0 L 10 5 L 0 10 z" fill="#028090"/>
    </marker>
  </defs>

  <!-- バイブコーディング -->
  <rect x="420" y="20" width="360" height="300" rx="16" fill="#f0fdf9" stroke="#028090" stroke-width="2"/>
  <text x="600" y="56" text-anchor="middle" font-size="18" font-weight="700" fill="#028090">バイブコーディング</text>

  <rect x="450" y="76" width="300" height="44" rx="8" fill="white" stroke="#028090" stroke-width="1.5"/>
  <text x="600" y="104" text-anchor="middle" font-size="15" fill="#374151" font-weight="600">困りごとを言葉にする</text>

  <line x1="600" y1="120" x2="600" y2="136" stroke="#028090" stroke-width="2" marker-end="url(#arrowTeal)"/>

  <rect x="450" y="136" width="300" height="44" rx="8" fill="white" stroke="#00A896" stroke-width="1.5"/>
  <text x="600" y="164" text-anchor="middle" font-size="15" fill="#374151" font-weight="600">AIに「作って」と伝える</text>

  <line x1="600" y1="180" x2="600" y2="196" stroke="#00A896" stroke-width="2" marker-end="url(#arrowTeal)"/>

  <rect x="450" y="196" width="300" height="44" rx="8" fill="white" stroke="#02C39A" stroke-width="1.5"/>
  <text x="600" y="224" text-anchor="middle" font-size="15" fill="#374151" font-weight="600">数分で動くものが完成</text>

  <line x1="600" y1="240" x2="600" y2="256" stroke="#02C39A" stroke-width="2" marker-end="url(#arrowTeal)"/>

  <rect x="450" y="256" width="300" height="44" rx="8" fill="#028090"/>
  <text x="600" y="284" text-anchor="middle" font-size="15" fill="white" font-weight="700">「直して」で改善を繰り返す</text>

  <!-- 中央の対比矢印 -->
  <text x="400" y="180" text-anchor="middle" font-size="28" fill="#028090">→</text>
</svg>